<svg id="Layer_1" data-name="Layer 1" xmlns="http://www.w3.org/2000/svg" viewBox="0 0 123.9 162.5"><defs><style>.cls-1{fill:#fff;}.cls-2{fill:#fbc116;}.cls-3{fill:#f0b657;}.cls-4{fill:#e02827;}.cls-5{fill:#bb2327;}.cls-6{fill:#a48966;}.cls-7{fill:#a8a8a8;}</style></defs><title>Artboard 1</title><polygon class="cls-1" points="110.9 86.8 115.9 87.4 120.8 85.3 122.5 86.7 123.5 89.2 123.4 91.5 120.7 90.5 120.6 93.2 118.2 93.1 112.3 94.7 110.9 86.8"/><path class="cls-2" d="M112.3,94.7l2.7,16.1-34.9,5.5L61,118.7l-11.2.7-23.4-1.1-9-2.4-.2-23.7L18.8,78l.3-20.8,3.3-8.5,7.6-8L39.4,36l12.9-.2s14.3.6,17.5,2.3l10.8,2.6S90.5,43.3,99,58.9l6.4,11.2,3.2,10.5Z"/><polygon class="cls-3" points="102.3 63.5 111.4 69.6 119.8 82.7 120.8 84.9 110.8 87.5 105.8 71.9 102.5 65.1 102.3 63.5"/><polygon class="cls-3" points="18.8 63.8 19.2 75.7 17.1 92.2 3.5 89.5 9.6 70.8 15.5 62.9 18.5 61.7 18.8 63.8"/><polygon class="cls-3" points="101.1 113.6 99.3 134.7 81.1 134.6 82 119.3 85.6 115.8 101.1 113.6"/><polygon class="cls-3" points="63.1 118.1 64.6 139.6 51.5 142.9 47.1 142.4 45.2 123.7 45.2 119.9 63.1 118.1"/><polyline class="cls-3" points="73.8 38.5 63.4 36.2 53 35.6 38.2 35.9 29.4 40.3 30.1 32.1 29.1 20.4 36.3 6.8 42.8 2.2 61 3.9 73.3 6.9 73.6 16.3 73.2 31.4 73.8 38.2"/><polygon class="cls-4" points="55.8 12.3 58.6 12 60.1 15.1 59.5 19.6 57.5 21.1 53.4 20.4 51.3 17.5 52.8 14 54.1 13.9 54.5 16.5 55.8 18.1 57 18.2 58.3 16 56.8 14.2 55.4 12.8 55.8 12.3"/><polygon class="cls-5" points="34.1 14.5 35.7 24.7 33.7 27.7 30.2 25.6 29.1 20.4 32.6 14.8 34.1 14.5"/><polygon class="cls-5" points="75 15.4 77.3 19.2 77.3 25.5 75.9 28 73.4 30.1 73.3 22.7 74.7 16.3 75 15.4"/><polygon class="cls-4" points="66.1 15.4 68.2 15.9 69.4 17.1 69.6 19.1 68.1 18.3 66.1 16.3 65.8 15.5 66.1 15.4"/><polygon class="cls-4" points="65.7 19.3 66.4 20.7 64.1 20.7 63.4 17.8 64.7 16.5 65.5 16.6 65.8 17 65.7 19.3"/><path d="M72.4,13.3c-4.3.4-10-2-13.2-1.8,5,6.7-3.3,14.9-8.2,8.2-.3-4.9,1.8-7.3,5-8.7-1.6-.7-4.2-.4-6.4-.5C56.5,8.6,66.2,11.6,72.4,13.3ZM56,12.8c.8,1.1,2.3,1.6,2.7,3.2a6.28,6.28,0,0,1-1.4,3.2c-2.6-.3-4.2-1.6-3.6-5-2-.3-.7,2.6-1.8,3.2.7,2.7,5.2,4.4,7.3,1.8C59.9,16.9,59.4,10.3,56,12.8Zm-1.4,2.3c-.4,1.9,1.2,1.8,1.8,2.7a2.42,2.42,0,0,0,1.4-1.4C57.9,14.9,56.1,15.1,54.6,15.1Z"/><path d="M67.9,22.4c-2.8.3-3.8-1-5.5-1.8C62.3,10.8,75,16.3,67.9,22.4ZM66,15.6c1.3.8,1.7,2.5,3.2,3.2C69.5,16.4,68,15.7,66,15.6Zm-.4,1.8c-.4-1.2-1.7.4-1.8.9.3,1.3.5,2.6,2.3,2.3C65.5,20.1,64.3,18.1,65.6,17.4Zm.4.4q-.3,2.1,1.8,1.8Q68.25,17.5,66,17.8Z"/><path class="cls-4" d="M66,15.6c1.3.8,1.7,2.5,3.2,3.2"/><path d="M43.3,23.3c-.5.1-.4.8-.5,1.4C53,25.9,61.3,29,70.1,28.3c-1.4-2.3-4.7-1.2-6.8-1.4-6.3-.6-12.7-3-19.1-3.2C43.6,23.8,43.4,23.7,43.3,23.3Z"/><path d="M83.3,61.6c2.7.3,5.3,3.3,3.6,8.7C79.6,79.9,72.9,60.6,83.3,61.6Zm-4.5,6.3c1.2.3.9-.9,1.8-.9.4,1.3-.6,1.2-.5,2.3,3.2,1,4.8-.9,6.4-2.7C86.5,60.9,77.8,62.5,78.8,67.9Zm7.3,1a6.66,6.66,0,0,1-6.4,1.4C81,72.7,85.9,71.4,86.1,68.9Z"/><path d="M71.9,69.8c-1.7,1.5-4.3,2.1-7.7,1.8a10.29,10.29,0,0,1-2.3-8.2C66.9,59.5,72.8,62.7,71.9,69.8Zm-9.1-5.5c.4,1.5,1.8,2.2,2.3,3.6C73.6,68.4,68.3,59.6,62.8,64.3Zm7.8,3.2c-1.2,1.1-4.7,3-6.4.9-1.7,3.2,4.6,2.2,6.4,1.4Z"/><path d="M45.5,69.3c-.1-3.3-.6-5.4.9-7.7C58.7,59.5,53.5,77.8,45.5,69.3Zm1.4-5.9c-.3,1.7.8,2,.5,3.6,2.3-.1,2.2.4,4.1,0-.1-1.4,1.1-2.6,0-3.6C50.1,62.2,48.6,63.6,46.9,63.4Zm6.4,4.1c-1.9,1-3.9,1-6.4.5.2,2.2,2.4,2.4,5,2.3C52.3,69.3,53.3,68.9,53.3,67.5Z"/><path class="cls-6" d="M78.8,67.9c1.2.3.9-.9,1.8-.9.4,1.3-.6,1.2-.5,2.3,3.2,1,4.8-.9,6.4-2.7C86.5,60.9,77.8,62.5,78.8,67.9Z"/><path class="cls-6" d="M62.8,64.3c.4,1.5,1.8,2.2,2.3,3.6C73.6,68.4,68.3,59.6,62.8,64.3Z"/><path class="cls-6" d="M46.9,63.4c-.3,1.7.8,2,.5,3.6,2.3-.1,2.2.4,4.1,0-.1-1.4,1.1-2.6,0-3.6C50.1,62.2,48.6,63.6,46.9,63.4Z"/><path class="cls-6" d="M70.6,67.5c-1.2,1.1-4.7,3-6.4.9-1.7,3.2,4.6,2.2,6.4,1.4Z"/><path class="cls-6" d="M53.3,67.5c-1.9,1-3.9,1-6.4.5.2,2.2,2.4,2.4,5,2.3C52.3,69.3,53.3,68.9,53.3,67.5Z"/><path class="cls-6" d="M86.1,68.9a6.66,6.66,0,0,1-6.4,1.4C81,72.7,85.9,71.4,86.1,68.9Z"/><path d="M81.5,78.4c2.1,2,8.1.1,10.9,1.4C90.9,77.8,84.4,78.6,81.5,78.4Z"/><path d="M61,85.2c.3-.4.6-.8,0-.9H46c17.1-3.5,28.2-2.4,46.9-1.8.5,1.4-.1,1.2.5,2.3C82.5,87,71.6,82.1,61,85.2c10.4-.3,21.4,1.1,32.8,1.8a25.05,25.05,0,0,0,0-8.2c-1.7-.4-.5,2-1.4,2.3A250.21,250.21,0,0,0,45,82.5c-.6-.6-.5-2-.5-3.2,9.8-1.6,28.8,1.7,36.4-1.4-11.4.7-24.9-.1-37.3,0,.8,3.4-.9,4.2-1.4,7.3C48.6,85.7,55.6,85.1,61,85.2Z"/><path class="cls-3" d="M110.2,83c2.6,2,5.6-.1,8.7.9C117.4,82.4,112.4,82.2,110.2,83Z"/><path class="cls-1" d="M118.4,87.5c-.1.7.1,5.1,1.8,5.5A8.46,8.46,0,0,0,118.4,87.5Z"/><path class="cls-1" d="M6.4,91.2c.3,2.1-.7,2.9-1.4,4.1.1.7,1.4.2,1.4.9,1.8-.4,1.3-3,2.3-4.1C8.6,91.1,7.5,91.1,6.4,91.2Z"/><path class="cls-1" d="M4.5,91.2c-1.9,0-2,1.7-1.8,3.6A4.25,4.25,0,0,0,4.5,91.2Z"/><path class="cls-1" d="M12.7,92.1c-2.3-.2-1.4,3.6-.5,4.1C13.4,95.8,13.5,93,12.7,92.1Z"/><path class="cls-1" d="M15.5,92.5c-2.1.1-.2,2.8,0,3.6C16.6,95.6,15.6,93.4,15.5,92.5Z"/><path d="M110.2,107.1a2.57,2.57,0,0,1-1.4.5c0,1.3.2,2.6,1.8,2.3C110.7,108.7,110.7,107.6,110.2,107.1Z"/><path d="M92.4,109.4a1.92,1.92,0,0,0,2.3,2.3,2.43,2.43,0,0,0,.5-1.8C94.6,109.3,93.6,109.3,92.4,109.4Z"/><path d="M24.6,112.1H22.3c-.3,1.5.8,1.7,1.8,1.8A2.43,2.43,0,0,0,24.6,112.1Z"/><path d="M70.6,112.6H68.8c-.7,1.4,0,1.9.9,2.7C70.8,115.3,70.6,113.8,70.6,112.6Z"/><path d="M40.1,113.5a1.92,1.92,0,0,0,2.3,2.3A1.63,1.63,0,0,0,40.1,113.5Z"/><path class="cls-3" d="M92,124.4c-2.2-2.2-7.5-.2-1.4,0Z"/><path class="cls-3" d="M54.2,124.9c.5,1.2,2.4.9,4.1.9C57.5,124.9,55.9,124.8,54.2,124.9Z"/><path class="cls-7" d="M93.4,135.8c2.2,3.6,7.3,3.8,6.4,9.6-1.1,7.4-16,6.3-16.4-1.8-.1-2,1.8-2.6,1.4-5.9-3.6,1.2-3.6,6.1-3.6,10.9,4.2,6.8,19.6,4.9,21-3.2A8.33,8.33,0,0,0,93.4,135.8Z"/><path class="cls-7" d="M57.4,142.6c2.1,4,6.5,4.5,5,10.9-3.1,4.5-14.6,6-15-1.8-3,12.4,15.1,8.7,18.2,2.7a2.84,2.84,0,0,0-1.4-.9c.1-.9,2-.1,1.8-1.4C65.2,146.9,63.3,142.8,57.4,142.6Z"/><path class="cls-7" d="M57.8,146.3c1.9,1.4.9,4,2.7,4.6-.3,3.8-7.6,5-9.6,1.8a9.27,9.27,0,0,0-.9-5.5c-2.5.8-1.1,5.5-.5,7.3C56.8,160,67.2,150,57.8,146.3Z"/><path class="cls-1" d="M54.2,146.3c-1-.1-.2,1.6-.5,2.3,1.1.1,1.4.9,2.3,0C56.2,147,54.9,147,54.2,146.3Z"/><path d="M112.9,153.6c3.5,1.5,4.1-1.9,0,0Z"/><path d="M50.1,161.3c-2.6-.6-5.1-4.1-8.2-4.6-.1,1.6-3.9.8-2.3,0-3.5-.2-9-.9-10.9,0-.1-.5.1-1.3-.5-1.4-4.9-1-11.2-.4-14.6-1.8,12.1-.7,18.8,1.1,30.1,1.4,1.1-.2-.3,2.1,1.4,1.4a21.36,21.36,0,0,1,3.6-12.8c-6.7-.3-1.8-11.5-5.1-14.9,2.2-3.3-.5-8.4-.4-9.7-10.5-.1-19,.5-26.4-2.7,0-7.1-1.2-11.8-.5-18.7-.9-.1-.9-1.2-1.8-1.4-1.2-.1-.4,1.8-1.8,1.4-2.4-1.7-6.5.5-11.4-1.8,2-11.5,6.1-24.8,13.2-32.8,1-.7,2.5-.9,3.2-1.8,1-2.9.2-4.9.9-7.3,1.7-5.7,8.8-9.3,10-13.7a30.28,30.28,0,0,0,.8-13.4c-.2-1.4-1.5-2.9-1.7-4.3-3.8,0-9-1.3-14.1-1.4-3.1,0-7.7,1.9-8.7-1.4,5.7.7,15.1.4,22.8,1.4,2.5-5.8,3-5,3.7-6.5C34,8.9,36.2,2.8,42.2,1.4c3.5-.8,9.4.5,13.2.9,6.5.8,12.7,2.6,18.4,3.7-.3,3.5-.3,7,.6,9.3,1.6-1.2,3.1,3.6,3.9,6.2,3-1.9,6.5-.3,10,0,3.3.3,8.3-1.4,9.1,1.4-5.3.6-14-2.4-19.6,0a9,9,0,0,1-3.6,7.7c.1,2.8-.4,6.1.5,8.2C89.3,41.5,96.1,52,102.5,62.9c7.6,2.8,12.6,9.6,16.4,16.4,2.5,4.6,5.1,7.3,5,12.8-1.4.6-2.3-1.6-2.7-.5.1,1.1.1,2.2-.9,2.3-1.8-.9-5.4.4-6.8,1.4a73.11,73.11,0,0,1,2.3,15.5c-3.5,2.4-10,1.9-14.1,3.6-1.4,6.7,1.1,18.5-3.2,21.4,5.6,2.8,5.6,12.7.5,15.9,4,2.8,12.9-.4,13.7,3.6-7.4-.7-25.6-2.9-28.7-.5.7-3.1-5,.1-5-2.3,1.7,0,3.6.3,4.1-.9-5.7-3.3-3.1-13.5,1.4-15.9a22.62,22.62,0,0,1-4.1-.9c.9-8.6-.3-11.7,1.8-18.2-6,1.1-12.9,1.7-17.8,2.7.5,8,1,11.1.9,20a16.94,16.94,0,0,1-3.6,2.3c3.1,2.5,6.3,5,5.5,11.4,2.4-.9,7.8-1.3,10,0-2.7.1-6.9,1.8-7.7,0C63.8,157.1,58.8,163.4,50.1,161.3ZM42.8,2.8c-3.1,9.8-3.6,21.9-4.1,32.8,11.1-1.9,23.6.4,34.6,2.3-1.5-11,.5-20.6-.9-31C64,4.1,53.1,3.7,42.8,2.8ZM40.1,4.6c-3.1,1.5-4.5,4.6-6.4,7.3,2.3,5.2,4.1,12.6.5,16.9a4.38,4.38,0,0,1-3.2-.9,40.18,40.18,0,0,0-.9,11.8,28.74,28.74,0,0,0,7.3-4.1C37.4,23.7,39.4,14.9,40.1,4.6ZM33.7,15.1c-4.4,1.3-6.5,11.7.5,11.8A26.86,26.86,0,0,0,33.7,15.1Zm41.4,1.4c-1.8,3.1-1.5,9-1.4,12.8C77.9,28,77.8,19.4,75.1,16.5Zm34.7,69.7c-2.7-5-3-11.1-5-16.9-.7-1.9-2.8-3.6-4.1-5.9C97,56.8,93.1,48.7,87.5,44.7a42.29,42.29,0,0,0-10-4.6c-1-.3-2.2.3-3.2,0C70.4,39,61.4,35.4,54.7,36c-1.7.2-2.1.7-3.7,1-15.3-4.2-30.1,8.2-31.4,22.3-.1,1.3,1.1,1.3,2.3,1.4-.3,1-1.7,1-1.8,2.3.9,15.7-3.8,31.1-1.8,46.5,12.2,1.1,26.5.1,40.1,2.3,16.3-1.8,35.3-4,55.6-6.8-.8-4.2-2.2-11.3-3.6-16.4M17.8,62.5C10.4,66.6,8.2,75.9,6,85.3c4.2.2,7.6,1.2,11.4,1.8C17.5,79.3,20.2,69.8,17.8,62.5Zm86,2.3c.1,1.6,1.3,2,1.4,3.6,1.3-1.8,3.3-.4,3.6,1.4-.1,1.2-1.5.9-2.7.9.2,4.4,2.5,6.6,3.2,10.5,3.4-.3,5.3.7,8.7.5C114.8,74.4,110.8,68.1,103.8,64.8ZM110.2,83c2.6,2,5.6-.1,8.7.9C117.4,82.4,112.4,82.2,110.2,83Zm8.2,2.2c-1.6-.8-6.1-.7-7.7,0C111.2,87.7,117,86.2,118.4,85.2Zm1.8,1.4c.2,2,1.5,5,3.2,4.1C123.5,88.4,122.4,85.3,120.2,86.6ZM5.5,86.6C7.6,89,13,88.3,16.9,88.9,14.4,87.1,8.2,86.6,5.5,86.6Zm112.9.9c-.1.7.1,5.1,1.8,5.5A8.46,8.46,0,0,0,118.4,87.5Zm-2.3.5c-1.2,1.3.2,4,.9,5C118.2,91.6,116.4,89.4,116.1,88Zm-2.3,0H112c.5,2.2.1,5.3,2.7,5.5C115,91.1,113.9,90.1,113.8,88ZM5,89.3c3.3.9,7.3,1.2,10.9,1.8C14.7,88.7,6.6,88.4,5,89.3Zm1.4,1.9c.3,2.1-.7,2.9-1.4,4.1.1.7,1.4.2,1.4.9,1.8-.4,1.3-3,2.3-4.1C8.6,91.1,7.5,91.1,6.4,91.2Zm-1.9,0c-1.9,0-2,1.7-1.8,3.6A4.25,4.25,0,0,0,4.5,91.2Zm8.2.9c-2.3-.2-1.4,3.6-.5,4.1C13.4,95.8,13.5,93,12.7,92.1Zm2.8.4c-2.1.1-.2,2.8,0,3.6C16.6,95.6,15.6,93.4,15.5,92.5Zm50.4,25.2c17.4-2.6,32-3.5,47.9-7.4-.2-1.5.6-3.9-.9-4.1-15.2.7-31.4,4.6-48.3,5.9-15.4,1.2-31.2-2-46.5-.9a15.72,15.72,0,0,0,.5,5c11.3,2.5,27.2,2.2,39.2,1.4m42.4-3.2c-6,1-14.3.7-16.4,6.8,6.1.3,9.1,1.4,15.9.9C99.6,118.3,100.2,117.9,100.2,114.4Zm-53.8,6.8c0,1.7-.5,1.3,0,2.7,5.2-1,11,.6,16.9.5a15.88,15.88,0,0,0-.5-5.5C59.2,119.7,50.5,118.5,46.4,121.2Zm49.2,2.3c.5.9,3.6,1.5,4.1.9C99.9,122.6,96.9,123.9,95.6,123.5Zm-3.6.9c-2.2-2.2-7.5-.2-1.4,0Zm-9.1.9c2.9,2.6,10.3.4,16.4,1.8C93.9,124,87.6,125.9,82.9,125.3Zm-28.7-.4c.5,1.2,2.4.9,4.1.9C57.5,124.9,55.9,124.8,54.2,124.9Zm-7.8,1.8c5.6,2.4,10.8,1.4,17.3,2.3C60.1,126.5,50.2,126.1,46.4,126.7Zm36,.9a32,32,0,0,0-.5,6.4c4.6.8,12.6-.5,16.9,0,.9-1.1.1-3.8.9-5C94.9,127.5,88.7,127.6,82.4,127.6Zm-35.5.9c-1.2,4.2-.1,10.1.9,13.7,5.7-.6,11.9-.8,15.9-3.2,1.1-2.3-.6-5.4,0-8.7C59.7,129.8,50.7,129.2,46.9,128.5Zm46.5,7.3c2.2,3.6,7.3,3.8,6.4,9.6-1.1,7.4-16,6.3-16.4-1.8-.1-2,1.8-2.6,1.4-5.9-3.6,1.2-3.6,6.1-3.6,10.9,4.2,6.8,19.6,4.9,21-3.2A8.33,8.33,0,0,0,93.4,135.8Zm-5.5,12.8c.1,1.2,8.6,1,10.5-2.3.5-3.8-1.4-6.8-3.2-6.8-1.1,1.3,2,2.3,1.8,4.1C94.8,146.1,93.2,149.2,87.9,148.6Zm3.6-7.3c-.2,1.4,1,1.8,0,2.7-2.2-1.5-1.9-.7-5-.5-.3,2.5,1.6,3,2.7,4.1,3-.5,4.3-2.7,6.4-4.1C95.1,141.8,93.1,139.3,91.5,141.3Zm-34.1,1.3c2.1,4,6.5,4.5,5,10.9-3.1,4.5-14.6,6-15-1.8-3,12.4,15.1,8.7,18.2,2.7a2.84,2.84,0,0,0-1.4-.9c.1-.9,2-.1,1.8-1.4C65.2,146.9,63.3,142.8,57.4,142.6Zm.4,3.7c1.9,1.4.9,4,2.7,4.6-.3,3.8-7.6,5-9.6,1.8a9.27,9.27,0,0,0-.9-5.5c-2.5.8-1.1,5.5-.5,7.3C56.8,160,67.2,150,57.8,146.3Zm-3.6,0c-1-.1-.2,1.6-.5,2.3,1.1.1,1.4.9,2.3,0C56.2,147,54.9,147,54.2,146.3Zm4.1,3.2c-2.2.4-2.7,2.5-5.5,2.3,1.2,2.5,3.7,1.2,5.9.9C58.7,151.4,58.9,150.1,58.3,149.5Z"/><path class="cls-7" d="M87.9,148.6c.1,1.2,8.6,1,10.5-2.3.5-3.8-1.4-6.8-3.2-6.8-1.1,1.3,2,2.3,1.8,4.1C94.8,146.1,93.2,149.2,87.9,148.6Z"/><path d="M17.3,66.1H15c-.6,1.9-.4,3.5,1.8,3.6C17.5,68.5,16.7,67.9,17.3,66.1Z"/><path class="cls-1" d="M88,137.7a8.86,8.86,0,0,1-.8,1.7.52.52,0,0,0,.4.8,7.72,7.72,0,0,0,1.5-.2c.2-.1.5-.3.4-.6a3.32,3.32,0,0,0-.5-1.6c-.3-.5-1,0-.8.5a5.27,5.27,0,0,1,.3,1.2c.1-.2.3-.4.4-.6a5,5,0,0,1-1.2.2,3,3,0,0,0,.4.8,17.38,17.38,0,0,0,1-1.9.58.58,0,0,0-1.1-.3Z"/></svg>